<?xml version="1.0" encoding="UTF-8" standalone="no"?><!-- Generator: Gravit.io --><svg xmlns="http://www.w3.org/2000/svg" xmlns:xlink="http://www.w3.org/1999/xlink" style="isolation:isolate" viewBox="0 0 130 40" width="130pt" height="40pt"><g><g><path d=" M 4 34.405 L 7.736 34.422 L 7.736 12.923 L 14.355 12.923 L 14.355 7.016 L 17.939 7.016 L 17.939 19.605 L 23.459 19.605 L 23.459 14.666 L 31.012 14.666 L 31.012 23.479 L 34.595 23.479 L 34.595 9.146 L 40.89 4.401 L 48.337 9.673 L 51.833 12.148 L 51.833 28.127 L 56.288 28.127 L 56.288 34.422 L 60.065 34.43" fill="none" vector-effect="non-scaling-stroke" stroke-width="1.562" stroke="rgb(154,6,6)" stroke-linejoin="miter" stroke-linecap="square" stroke-miterlimit="3"/><path d=" M 22.692 28.338 L 22.692 28.338 L 22.692 28.338 Q 22.692 28.951 22.425 29.481 L 22.425 29.481 L 22.425 29.481 Q 21.937 30.47 20.709 30.86 L 20.709 30.86 L 20.709 30.86 Q 20.28 31 19.969 31 L 19.969 31 L 19.969 31 Q 19.052 31 18.386 30.679 L 18.386 30.679 L 18.386 30.54 L 18.386 30.54 Q 19.466 30.763 20.384 30.317 L 20.384 30.317 L 20.384 30.317 Q 21.197 29.927 21.493 29.035 L 21.493 29.035 L 21.493 29.035 Q 21.582 28.756 21.582 28.505 L 21.582 28.505 L 21.582 28.505 Q 21.582 28.254 21.582 28.199 L 21.582 28.199 L 21.582 28.199 Q 21.553 27.223 21.035 26.645 L 21.035 26.645 L 21.035 26.645 Q 20.517 26.066 19.585 26.066 L 19.585 26.066 L 17.883 26.066 L 17.883 34.386 L 17.883 34.386 Q 17.898 34.749 18.172 35.007 L 18.172 35.007 L 18.172 35.007 Q 18.446 35.265 18.83 35.265 L 18.83 35.265 L 19.023 35.265 L 19.023 35.404 L 15.782 35.404 L 15.782 35.265 L 15.975 35.265 L 15.975 35.265 Q 16.359 35.265 16.633 35.007 L 16.633 35.007 L 16.633 35.007 Q 16.907 34.749 16.922 34.386 L 16.922 34.386 L 16.922 26.596 L 16.922 26.596 Q 16.877 26.247 16.611 26.017 L 16.611 26.017 L 16.611 26.017 Q 16.345 25.788 15.975 25.788 L 15.975 25.788 L 15.797 25.788 L 15.782 25.648 L 19.644 25.648 L 19.644 25.648 Q 21.064 25.648 21.878 26.366 L 21.878 26.366 L 21.878 26.366 Q 22.692 27.084 22.692 28.338 Z  M 32.974 35.265 L 32.974 35.265 L 33.093 35.265 L 33.093 35.404 L 29.764 35.404 L 29.764 35.265 L 29.897 35.265 L 29.897 35.265 Q 30.208 35.265 30.363 35.076 L 30.363 35.076 L 30.363 35.076 Q 30.518 34.888 30.518 34.721 L 30.518 34.721 L 30.518 34.721 Q 30.518 34.554 30.459 34.386 L 30.459 34.386 L 29.512 32.017 L 25.518 32.017 L 24.526 34.4 L 24.526 34.4 Q 24.467 34.568 24.467 34.728 L 24.467 34.728 L 24.467 34.728 Q 24.467 34.888 24.623 35.076 L 24.623 35.076 L 24.623 35.076 Q 24.778 35.265 25.089 35.265 L 25.089 35.265 L 25.222 35.265 L 25.222 35.404 L 22.248 35.404 L 22.248 35.265 L 22.381 35.265 L 22.381 35.265 Q 22.751 35.265 23.106 35.042 L 23.106 35.042 L 23.106 35.042 Q 23.461 34.819 23.683 34.386 L 23.683 34.386 L 27.027 26.889 L 27.027 26.889 Q 27.574 25.76 27.574 25.453 L 27.574 25.453 L 27.707 25.453 L 31.672 34.386 L 31.672 34.386 Q 31.879 34.819 32.235 35.042 L 32.235 35.042 L 32.235 35.042 Q 32.59 35.265 32.974 35.265 Z  M 27.559 27.125 L 25.695 31.599 L 29.335 31.599 L 27.559 27.125 Z  M 46.246 35.265 L 46.246 35.265 L 46.482 35.265 L 46.482 35.404 L 43.272 35.404 L 43.272 35.278 L 43.494 35.278 L 43.494 35.278 Q 43.745 35.278 43.923 35.09 L 43.923 35.09 L 43.923 35.09 Q 44.1 34.902 44.071 34.679 L 44.071 34.679 L 43.405 27.669 L 40.298 34.177 L 40.298 34.177 Q 39.884 35.028 39.795 35.599 L 39.795 35.599 L 39.647 35.599 L 35.859 27.864 L 35.223 34.679 L 35.223 34.679 Q 35.194 34.902 35.371 35.09 L 35.371 35.09 L 35.371 35.09 Q 35.549 35.278 35.785 35.278 L 35.785 35.278 L 36.022 35.278 L 36.022 35.404 L 33.152 35.404 L 33.152 35.265 L 33.389 35.265 L 33.389 35.265 Q 33.803 35.265 34.106 35.028 L 34.106 35.028 L 34.106 35.028 Q 34.409 34.791 34.469 34.386 L 34.469 34.386 L 35.578 25.453 L 35.726 25.453 L 39.854 33.857 L 43.893 25.453 L 44.026 25.453 L 45.165 34.386 L 45.165 34.386 Q 45.239 34.944 45.757 35.167 L 45.757 35.167 L 45.757 35.167 Q 45.979 35.265 46.246 35.265 Z " fill="rgb(1,35,63)"/></g></g><path d=" M 73.375 27.878 L 74.245 27.878 L 74.245 34.405 L 73.375 34.405 L 73.375 27.878 L 73.375 27.878 Z  M 81.739 29.684 L 81.739 29.684 L 81.739 29.684 Q 82.362 29.684 82.694 30.006 L 82.694 30.006 L 82.694 30.006 Q 83.025 30.328 83.025 30.952 L 83.025 30.952 L 83.025 34.405 L 82.194 34.405 L 82.194 31.179 L 82.194 31.179 Q 82.184 30.753 82.016 30.559 L 82.016 30.559 L 82.016 30.559 Q 81.848 30.366 81.443 30.366 L 81.443 30.366 L 81.443 30.366 Q 81.186 30.366 80.953 30.446 L 80.953 30.446 L 80.953 30.446 Q 80.721 30.526 80.444 30.697 L 80.444 30.697 L 80.444 30.697 Q 80.167 30.867 79.772 31.141 L 79.772 31.141 L 79.722 30.574 L 79.722 30.574 Q 80.246 30.129 80.741 29.907 L 80.741 29.907 L 80.741 29.907 Q 81.235 29.684 81.739 29.684 Z  M 75.876 29.798 L 76.568 29.798 L 76.628 30.678 L 76.717 30.82 L 76.717 34.405 L 75.876 34.405 L 75.876 29.798 L 75.876 29.798 Z  M 78.585 29.684 L 78.585 29.684 L 78.585 29.684 Q 79.198 29.684 79.525 30.001 L 79.525 30.001 L 79.525 30.001 Q 79.851 30.318 79.861 30.952 L 79.861 30.952 L 79.861 34.405 L 79.05 34.405 L 79.05 31.179 L 79.05 31.179 Q 79.05 30.734 78.862 30.55 L 78.862 30.55 L 78.862 30.55 Q 78.674 30.366 78.299 30.366 L 78.299 30.366 L 78.299 30.366 Q 78.051 30.366 77.819 30.441 L 77.819 30.441 L 77.819 30.441 Q 77.587 30.517 77.305 30.687 L 77.305 30.687 L 77.305 30.687 Q 77.023 30.857 76.618 31.141 L 76.618 31.141 L 76.558 30.574 L 76.558 30.574 Q 77.082 30.129 77.577 29.907 L 77.577 29.907 L 77.577 29.907 Q 78.071 29.684 78.585 29.684 Z  M 86.574 29.684 L 86.574 29.684 L 86.574 29.684 Q 87.405 29.684 87.904 29.921 L 87.904 29.921 L 87.904 29.921 Q 88.403 30.157 88.621 30.692 L 88.621 30.692 L 88.621 30.692 Q 88.839 31.226 88.839 32.106 L 88.839 32.106 L 88.839 32.106 Q 88.839 32.986 88.621 33.52 L 88.621 33.52 L 88.621 33.52 Q 88.403 34.055 87.904 34.291 L 87.904 34.291 L 87.904 34.291 Q 87.405 34.528 86.574 34.528 L 86.574 34.528 L 86.574 34.528 Q 85.754 34.528 85.254 34.291 L 85.254 34.291 L 85.254 34.291 Q 84.755 34.055 84.533 33.52 L 84.533 33.52 L 84.533 33.52 Q 84.31 32.986 84.31 32.106 L 84.31 32.106 L 84.31 32.106 Q 84.31 31.226 84.533 30.692 L 84.533 30.692 L 84.533 30.692 Q 84.755 30.157 85.254 29.921 L 85.254 29.921 L 85.254 29.921 Q 85.754 29.684 86.574 29.684 Z  M 86.574 30.366 L 86.574 30.366 L 86.574 30.366 Q 86.05 30.366 85.749 30.522 L 85.749 30.522 L 85.749 30.522 Q 85.447 30.678 85.319 31.056 L 85.319 31.056 L 85.319 31.056 Q 85.19 31.434 85.19 32.106 L 85.19 32.106 L 85.19 32.106 Q 85.19 32.778 85.319 33.156 L 85.319 33.156 L 85.319 33.156 Q 85.447 33.535 85.749 33.691 L 85.749 33.691 L 85.749 33.691 Q 86.05 33.847 86.574 33.847 L 86.574 33.847 L 86.574 33.847 Q 87.098 33.847 87.405 33.691 L 87.405 33.691 L 87.405 33.691 Q 87.711 33.535 87.84 33.156 L 87.84 33.156 L 87.84 33.156 Q 87.968 32.778 87.968 32.106 L 87.968 32.106 L 87.968 32.106 Q 87.968 31.434 87.84 31.056 L 87.84 31.056 L 87.84 31.056 Q 87.711 30.678 87.405 30.522 L 87.405 30.522 L 87.405 30.522 Q 87.098 30.366 86.574 30.366 Z  M 85.882 28.824 L 87.583 27.433 L 88.067 28.057 L 86.169 29.192 L 85.882 28.824 L 85.882 28.824 Z  M 93.486 29.798 L 94.375 29.798 L 92.615 34.206 L 92.615 34.206 Q 92.576 34.301 92.502 34.353 L 92.502 34.353 L 92.502 34.353 Q 92.428 34.405 92.319 34.405 L 92.319 34.405 L 91.558 34.405 L 91.558 34.405 Q 91.459 34.405 91.38 34.353 L 91.38 34.353 L 91.38 34.353 Q 91.3 34.301 91.261 34.206 L 91.261 34.206 L 89.501 29.798 L 90.401 29.798 L 91.587 33.024 L 91.587 33.024 Q 91.666 33.222 91.736 33.431 L 91.736 33.431 L 91.736 33.431 Q 91.805 33.639 91.874 33.828 L 91.874 33.828 L 92.002 33.828 L 92.002 33.828 Q 92.082 33.629 92.156 33.426 L 92.156 33.426 L 92.156 33.426 Q 92.23 33.222 92.299 33.024 L 92.299 33.024 L 93.486 29.798 L 93.486 29.798 Z  M 97.253 29.684 L 97.253 29.684 L 97.253 29.684 Q 98.34 29.684 98.83 30.063 L 98.83 30.063 L 98.83 30.063 Q 99.319 30.441 99.319 31.189 L 99.319 31.189 L 99.319 31.189 Q 99.329 31.803 99.052 32.149 L 99.052 32.149 L 99.052 32.149 Q 98.775 32.494 98.172 32.494 L 98.172 32.494 L 95.364 32.494 L 95.364 31.87 L 97.955 31.87 L 97.955 31.87 Q 98.281 31.87 98.38 31.657 L 98.38 31.657 L 98.38 31.657 Q 98.479 31.444 98.479 31.189 L 98.479 31.189 L 98.479 31.189 Q 98.469 30.744 98.202 30.555 L 98.202 30.555 L 98.202 30.555 Q 97.935 30.366 97.292 30.366 L 97.292 30.366 L 97.292 30.366 Q 96.768 30.366 96.467 30.512 L 96.467 30.512 L 96.467 30.512 Q 96.165 30.659 96.041 31.023 L 96.041 31.023 L 96.041 31.023 Q 95.918 31.387 95.918 32.04 L 95.918 32.04 L 95.918 32.04 Q 95.918 32.778 96.071 33.166 L 96.071 33.166 L 96.071 33.166 Q 96.224 33.553 96.561 33.695 L 96.561 33.695 L 96.561 33.695 Q 96.897 33.837 97.45 33.837 L 97.45 33.837 L 97.45 33.837 Q 97.836 33.837 98.296 33.804 L 98.296 33.804 L 98.296 33.804 Q 98.756 33.771 99.121 33.724 L 99.121 33.724 L 99.21 34.263 L 99.21 34.263 Q 98.983 34.348 98.652 34.405 L 98.652 34.405 L 98.652 34.405 Q 98.32 34.462 97.969 34.49 L 97.969 34.49 L 97.969 34.49 Q 97.618 34.518 97.342 34.518 L 97.342 34.518 L 97.342 34.518 Q 96.511 34.518 96.007 34.277 L 96.007 34.277 L 96.007 34.277 Q 95.503 34.036 95.27 33.501 L 95.27 33.501 L 95.27 33.501 Q 95.038 32.967 95.038 32.087 L 95.038 32.087 L 95.038 32.087 Q 95.038 31.179 95.27 30.654 L 95.27 30.654 L 95.27 30.654 Q 95.503 30.129 95.992 29.907 L 95.992 29.907 L 95.992 29.907 Q 96.481 29.684 97.253 29.684 Z  M 100.624 29.798 L 101.455 29.798 L 101.455 34.405 L 100.624 34.405 L 100.624 29.798 L 100.624 29.798 Z  M 100.842 27.84 L 101.237 27.84 L 101.237 27.84 Q 101.494 27.84 101.494 28.086 L 101.494 28.086 L 101.494 28.625 L 101.494 28.625 Q 101.494 28.871 101.237 28.871 L 101.237 28.871 L 100.842 28.871 L 100.842 28.871 Q 100.585 28.871 100.585 28.625 L 100.585 28.625 L 100.585 28.086 L 100.585 28.086 Q 100.585 27.84 100.842 27.84 L 100.842 27.84 L 100.842 27.84 Z  M 104.638 29.684 L 104.638 29.684 L 104.638 29.684 Q 104.955 29.684 105.311 29.703 L 105.311 29.703 L 105.311 29.703 Q 105.667 29.722 106.018 29.751 L 106.018 29.751 L 106.018 29.751 Q 106.369 29.779 106.665 29.826 L 106.665 29.826 L 106.596 30.413 L 106.596 30.413 Q 106.141 30.394 105.682 30.38 L 105.682 30.38 L 105.682 30.38 Q 105.222 30.366 104.767 30.366 L 104.767 30.366 L 104.767 30.366 Q 104.322 30.356 104.065 30.384 L 104.065 30.384 L 104.065 30.384 Q 103.808 30.413 103.694 30.536 L 103.694 30.536 L 103.694 30.536 Q 103.581 30.659 103.581 30.952 L 103.581 30.952 L 103.581 30.952 Q 103.581 31.312 103.758 31.425 L 103.758 31.425 L 103.758 31.425 Q 103.936 31.539 104.283 31.614 L 104.283 31.614 L 105.687 31.917 L 105.687 31.917 Q 106.26 32.049 106.532 32.324 L 106.532 32.324 L 106.532 32.324 Q 106.804 32.598 106.804 33.185 L 106.804 33.185 L 106.804 33.185 Q 106.804 33.752 106.581 34.036 L 106.581 34.036 L 106.581 34.036 Q 106.359 34.32 105.904 34.414 L 105.904 34.414 L 105.904 34.414 Q 105.449 34.509 104.747 34.509 L 104.747 34.509 L 104.747 34.509 Q 104.49 34.509 103.981 34.49 L 103.981 34.49 L 103.981 34.49 Q 103.472 34.471 102.859 34.377 L 102.859 34.377 L 102.918 33.79 L 102.918 33.79 Q 103.155 33.799 103.422 33.814 L 103.422 33.814 L 103.422 33.814 Q 103.689 33.828 103.981 33.828 L 103.981 33.828 L 103.981 33.828 Q 104.273 33.828 104.579 33.828 L 104.579 33.828 L 104.579 33.828 Q 105.123 33.828 105.429 33.781 L 105.429 33.781 L 105.429 33.781 Q 105.736 33.733 105.864 33.596 L 105.864 33.596 L 105.864 33.596 Q 105.993 33.459 105.993 33.185 L 105.993 33.185 L 105.993 33.185 Q 105.993 32.844 105.785 32.73 L 105.785 32.73 L 105.785 32.73 Q 105.578 32.617 105.232 32.541 L 105.232 32.541 L 103.847 32.239 L 103.847 32.239 Q 103.452 32.144 103.215 31.988 L 103.215 31.988 L 103.215 31.988 Q 102.977 31.832 102.869 31.581 L 102.869 31.581 L 102.869 31.581 Q 102.76 31.33 102.76 30.952 L 102.76 30.952 L 102.76 30.952 Q 102.76 30.413 102.958 30.138 L 102.958 30.138 L 102.958 30.138 Q 103.155 29.864 103.571 29.77 L 103.571 29.77 L 103.571 29.77 Q 103.986 29.675 104.638 29.684 Z  M 86.787 18.333 L 86.787 18.333 L 86.787 18.333 Q 87.261 18.333 87.726 18.451 L 87.726 18.451 L 87.726 18.451 Q 88.191 18.569 88.616 18.815 L 88.616 18.815 L 88.567 19.316 L 88.567 19.316 Q 88.102 19.184 87.746 19.108 L 87.746 19.108 L 87.746 19.108 Q 87.39 19.033 86.985 19.033 L 86.985 19.033 L 86.985 19.033 Q 86.569 19.033 86.317 19.17 L 86.317 19.17 L 86.317 19.17 Q 86.065 19.307 85.946 19.676 L 85.946 19.676 L 85.946 19.676 Q 85.828 20.045 85.828 20.726 L 85.828 20.726 L 85.828 20.726 Q 85.828 21.407 85.942 21.785 L 85.942 21.785 L 85.942 21.785 Q 86.055 22.164 86.302 22.315 L 86.302 22.315 L 86.302 22.315 Q 86.55 22.467 86.935 22.467 L 86.935 22.467 L 86.935 22.467 Q 87.222 22.467 87.454 22.396 L 87.454 22.396 L 87.454 22.396 Q 87.687 22.325 87.949 22.164 L 87.949 22.164 L 87.949 22.164 Q 88.211 22.003 88.567 21.757 L 88.567 21.757 L 88.646 22.325 L 88.646 22.325 Q 88.25 22.675 87.746 22.921 L 87.746 22.921 L 87.746 22.921 Q 87.242 23.167 86.658 23.167 L 86.658 23.167 L 86.658 23.167 Q 85.749 23.167 85.358 22.552 L 85.358 22.552 L 85.358 22.552 Q 84.968 21.937 84.968 20.735 L 84.968 20.735 L 84.968 20.735 Q 84.968 19.837 85.165 19.312 L 85.165 19.312 L 85.165 19.312 Q 85.363 18.787 85.769 18.56 L 85.769 18.56 L 85.769 18.56 Q 86.174 18.333 86.787 18.333 Z  M 88.458 16.431 L 89.298 16.431 L 89.298 23.053 L 88.646 23.053 L 88.547 22.249 L 88.458 22.183 L 88.458 19.023 L 88.517 18.881 L 88.517 18.881 Q 88.478 18.616 88.468 18.37 L 88.468 18.37 L 88.468 18.37 Q 88.458 18.124 88.458 17.85 L 88.458 17.85 L 88.458 16.431 L 88.458 16.431 Z  M 92.828 18.333 L 92.828 18.333 L 92.828 18.333 Q 93.916 18.333 94.405 18.711 L 94.405 18.711 L 94.405 18.711 Q 94.895 19.089 94.895 19.837 L 94.895 19.837 L 94.895 19.837 Q 94.904 20.452 94.628 20.797 L 94.628 20.797 L 94.628 20.797 Q 94.351 21.142 93.748 21.142 L 93.748 21.142 L 90.94 21.142 L 90.94 20.518 L 93.53 20.518 L 93.53 20.518 Q 93.856 20.518 93.955 20.305 L 93.955 20.305 L 93.955 20.305 Q 94.054 20.092 94.054 19.837 L 94.054 19.837 L 94.054 19.837 Q 94.044 19.392 93.777 19.203 L 93.777 19.203 L 93.777 19.203 Q 93.51 19.014 92.868 19.014 L 92.868 19.014 L 92.868 19.014 Q 92.344 19.014 92.042 19.16 L 92.042 19.16 L 92.042 19.16 Q 91.74 19.307 91.617 19.671 L 91.617 19.671 L 91.617 19.671 Q 91.493 20.035 91.493 20.688 L 91.493 20.688 L 91.493 20.688 Q 91.493 21.426 91.647 21.814 L 91.647 21.814 L 91.647 21.814 Q 91.8 22.202 92.136 22.344 L 92.136 22.344 L 92.136 22.344 Q 92.472 22.485 93.026 22.485 L 93.026 22.485 L 93.026 22.485 Q 93.411 22.485 93.871 22.452 L 93.871 22.452 L 93.871 22.452 Q 94.331 22.419 94.697 22.372 L 94.697 22.372 L 94.786 22.911 L 94.786 22.911 Q 94.558 22.996 94.227 23.053 L 94.227 23.053 L 94.227 23.053 Q 93.896 23.11 93.545 23.138 L 93.545 23.138 L 93.545 23.138 Q 93.194 23.167 92.917 23.167 L 92.917 23.167 L 92.917 23.167 Q 92.087 23.167 91.582 22.925 L 91.582 22.925 L 91.582 22.925 Q 91.078 22.684 90.846 22.15 L 90.846 22.15 L 90.846 22.15 Q 90.613 21.615 90.613 20.735 L 90.613 20.735 L 90.613 20.735 Q 90.613 19.827 90.846 19.302 L 90.846 19.302 L 90.846 19.302 Q 91.078 18.777 91.567 18.555 L 91.567 18.555 L 91.567 18.555 Q 92.057 18.333 92.828 18.333 Z  M 58.826 4.778 L 59.735 4.778 L 59.735 4.778 Q 59.854 4.778 59.943 4.839 L 59.943 4.839 L 59.943 4.839 Q 60.032 4.901 60.061 5.005 L 60.061 5.005 L 62.256 11.305 L 61.357 11.305 L 59.587 5.951 L 59.587 5.951 Q 59.547 5.818 59.503 5.681 L 59.503 5.681 L 59.503 5.681 Q 59.458 5.544 59.419 5.421 L 59.419 5.421 L 59.142 5.421 L 59.142 5.421 Q 59.102 5.544 59.063 5.681 L 59.063 5.681 L 59.063 5.681 Q 59.023 5.818 58.974 5.951 L 58.974 5.951 L 57.204 11.305 L 56.304 11.305 L 58.499 5.005 L 58.499 5.005 Q 58.529 4.901 58.618 4.839 L 58.618 4.839 L 58.618 4.839 Q 58.707 4.778 58.826 4.778 L 58.826 4.778 L 58.826 4.778 Z  M 57.54 8.543 L 61.001 8.543 L 61.001 9.262 L 57.54 9.262 L 57.54 8.543 L 57.54 8.543 Z  M 64.728 6.584 L 64.728 6.584 L 64.728 6.584 Q 65.203 6.584 65.668 6.703 L 65.668 6.703 L 65.668 6.703 Q 66.132 6.821 66.557 7.067 L 66.557 7.067 L 66.508 7.568 L 66.508 7.568 Q 66.043 7.436 65.687 7.36 L 65.687 7.36 L 65.687 7.36 Q 65.331 7.284 64.926 7.284 L 64.926 7.284 L 64.926 7.284 Q 64.511 7.284 64.259 7.422 L 64.259 7.422 L 64.259 7.422 Q 64.007 7.559 63.888 7.928 L 63.888 7.928 L 63.888 7.928 Q 63.769 8.297 63.769 8.978 L 63.769 8.978 L 63.769 8.978 Q 63.769 9.659 63.883 10.037 L 63.883 10.037 L 63.883 10.037 Q 63.997 10.416 64.244 10.567 L 64.244 10.567 L 64.244 10.567 Q 64.491 10.718 64.877 10.718 L 64.877 10.718 L 64.877 10.718 Q 65.163 10.718 65.396 10.647 L 65.396 10.647 L 65.396 10.647 Q 65.628 10.576 65.89 10.416 L 65.89 10.416 L 65.89 10.416 Q 66.152 10.255 66.508 10.009 L 66.508 10.009 L 66.587 10.576 L 66.587 10.576 Q 66.192 10.926 65.687 11.172 L 65.687 11.172 L 65.687 11.172 Q 65.183 11.418 64.6 11.418 L 64.6 11.418 L 64.6 11.418 Q 63.69 11.418 63.3 10.803 L 63.3 10.803 L 63.3 10.803 Q 62.909 10.189 62.909 8.987 L 62.909 8.987 L 62.909 8.987 Q 62.909 8.088 63.107 7.563 L 63.107 7.563 L 63.107 7.563 Q 63.305 7.038 63.71 6.811 L 63.71 6.811 L 63.71 6.811 Q 64.115 6.584 64.728 6.584 Z  M 66.399 4.683 L 67.24 4.683 L 67.24 11.305 L 66.587 11.305 L 66.488 10.501 L 66.399 10.435 L 66.399 7.275 L 66.459 7.133 L 66.459 7.133 Q 66.419 6.868 66.409 6.622 L 66.409 6.622 L 66.409 6.622 Q 66.399 6.376 66.399 6.102 L 66.399 6.102 L 66.399 4.683 L 66.399 4.683 Z  M 74.655 6.584 L 74.655 6.584 L 74.655 6.584 Q 75.278 6.584 75.609 6.906 L 75.609 6.906 L 75.609 6.906 Q 75.941 7.228 75.941 7.852 L 75.941 7.852 L 75.941 11.305 L 75.11 11.305 L 75.11 8.079 L 75.11 8.079 Q 75.1 7.653 74.932 7.459 L 74.932 7.459 L 74.932 7.459 Q 74.764 7.265 74.359 7.265 L 74.359 7.265 L 74.359 7.265 Q 74.101 7.265 73.869 7.346 L 73.869 7.346 L 73.869 7.346 Q 73.637 7.426 73.36 7.597 L 73.36 7.597 L 73.36 7.597 Q 73.083 7.767 72.688 8.041 L 72.688 8.041 L 72.638 7.474 L 72.638 7.474 Q 73.162 7.029 73.657 6.807 L 73.657 6.807 L 73.657 6.807 Q 74.151 6.584 74.655 6.584 Z  M 68.792 6.698 L 69.484 6.698 L 69.543 7.578 L 69.632 7.72 L 69.632 11.305 L 68.792 11.305 L 68.792 6.698 L 68.792 6.698 Z  M 71.501 6.584 L 71.501 6.584 L 71.501 6.584 Q 72.114 6.584 72.44 6.901 L 72.44 6.901 L 72.44 6.901 Q 72.767 7.218 72.777 7.852 L 72.777 7.852 L 72.777 11.305 L 71.966 11.305 L 71.966 8.079 L 71.966 8.079 Q 71.966 7.634 71.778 7.45 L 71.778 7.45 L 71.778 7.45 Q 71.59 7.265 71.214 7.265 L 71.214 7.265 L 71.214 7.265 Q 70.967 7.265 70.735 7.341 L 70.735 7.341 L 70.735 7.341 Q 70.502 7.417 70.221 7.587 L 70.221 7.587 L 70.221 7.587 Q 69.939 7.757 69.534 8.041 L 69.534 8.041 L 69.474 7.474 L 69.474 7.474 Q 69.998 7.029 70.493 6.807 L 70.493 6.807 L 70.493 6.807 Q 70.987 6.584 71.501 6.584 Z  M 77.493 6.698 L 78.323 6.698 L 78.323 11.305 L 77.493 11.305 L 77.493 6.698 L 77.493 6.698 Z  M 77.71 4.74 L 78.106 4.74 L 78.106 4.74 Q 78.363 4.74 78.363 4.986 L 78.363 4.986 L 78.363 5.525 L 78.363 5.525 Q 78.363 5.771 78.106 5.771 L 78.106 5.771 L 77.71 5.771 L 77.71 5.771 Q 77.453 5.771 77.453 5.525 L 77.453 5.525 L 77.453 4.986 L 77.453 4.986 Q 77.453 4.74 77.71 4.74 L 77.71 4.74 L 77.71 4.74 Z  M 82.832 6.584 L 82.832 6.584 L 82.832 6.584 Q 84.137 6.584 84.137 7.852 L 84.137 7.852 L 84.137 11.305 L 83.297 11.305 L 83.297 8.079 L 83.297 8.079 Q 83.297 7.615 83.138 7.44 L 83.138 7.44 L 83.138 7.44 Q 82.98 7.265 82.605 7.265 L 82.605 7.265 L 82.605 7.265 Q 82.16 7.265 81.715 7.474 L 81.715 7.474 L 81.715 7.474 Q 81.27 7.682 80.657 8.041 L 80.657 8.041 L 80.617 7.464 L 80.617 7.464 Q 81.181 7.048 81.734 6.816 L 81.734 6.816 L 81.734 6.816 Q 82.288 6.584 82.832 6.584 Z  M 79.905 6.698 L 80.617 6.698 L 80.686 7.578 L 80.746 7.72 L 80.746 11.305 L 79.905 11.305 L 79.905 6.698 L 79.905 6.698 Z  M 85.689 6.698 L 86.52 6.698 L 86.52 11.305 L 85.689 11.305 L 85.689 6.698 L 85.689 6.698 Z  M 85.907 4.74 L 86.302 4.74 L 86.302 4.74 Q 86.559 4.74 86.559 4.986 L 86.559 4.986 L 86.559 5.525 L 86.559 5.525 Q 86.559 5.771 86.302 5.771 L 86.302 5.771 L 85.907 5.771 L 85.907 5.771 Q 85.65 5.771 85.65 5.525 L 85.65 5.525 L 85.65 4.986 L 85.65 4.986 Q 85.65 4.74 85.907 4.74 L 85.907 4.74 L 85.907 4.74 Z  M 89.704 6.584 L 89.704 6.584 L 89.704 6.584 Q 90.02 6.584 90.376 6.603 L 90.376 6.603 L 90.376 6.603 Q 90.732 6.622 91.083 6.651 L 91.083 6.651 L 91.083 6.651 Q 91.434 6.679 91.731 6.726 L 91.731 6.726 L 91.661 7.313 L 91.661 7.313 Q 91.207 7.294 90.747 7.28 L 90.747 7.28 L 90.747 7.28 Q 90.287 7.265 89.832 7.265 L 89.832 7.265 L 89.832 7.265 Q 89.387 7.256 89.13 7.284 L 89.13 7.284 L 89.13 7.284 Q 88.873 7.313 88.759 7.436 L 88.759 7.436 L 88.759 7.436 Q 88.646 7.559 88.646 7.852 L 88.646 7.852 L 88.646 7.852 Q 88.646 8.211 88.824 8.325 L 88.824 8.325 L 88.824 8.325 Q 89.002 8.438 89.348 8.514 L 89.348 8.514 L 90.752 8.817 L 90.752 8.817 Q 91.325 8.949 91.597 9.224 L 91.597 9.224 L 91.597 9.224 Q 91.869 9.498 91.869 10.085 L 91.869 10.085 L 91.869 10.085 Q 91.869 10.652 91.647 10.936 L 91.647 10.936 L 91.647 10.936 Q 91.424 11.22 90.969 11.314 L 90.969 11.314 L 90.969 11.314 Q 90.514 11.409 89.812 11.409 L 89.812 11.409 L 89.812 11.409 Q 89.555 11.409 89.046 11.39 L 89.046 11.39 L 89.046 11.39 Q 88.537 11.371 87.924 11.276 L 87.924 11.276 L 87.983 10.69 L 87.983 10.69 Q 88.221 10.699 88.488 10.714 L 88.488 10.714 L 88.488 10.714 Q 88.754 10.728 89.046 10.728 L 89.046 10.728 L 89.046 10.728 Q 89.338 10.728 89.644 10.728 L 89.644 10.728 L 89.644 10.728 Q 90.188 10.728 90.495 10.68 L 90.495 10.68 L 90.495 10.68 Q 90.801 10.633 90.93 10.496 L 90.93 10.496 L 90.93 10.496 Q 91.058 10.359 91.058 10.085 L 91.058 10.085 L 91.058 10.085 Q 91.058 9.744 90.851 9.63 L 90.851 9.63 L 90.851 9.63 Q 90.643 9.517 90.297 9.441 L 90.297 9.441 L 88.913 9.139 L 88.913 9.139 Q 88.517 9.044 88.28 8.888 L 88.28 8.888 L 88.28 8.888 Q 88.043 8.732 87.934 8.481 L 87.934 8.481 L 87.934 8.481 Q 87.825 8.23 87.825 7.852 L 87.825 7.852 L 87.825 7.852 Q 87.825 7.313 88.023 7.038 L 88.023 7.038 L 88.023 7.038 Q 88.221 6.764 88.636 6.67 L 88.636 6.67 L 88.636 6.67 Q 89.051 6.575 89.704 6.584 Z  M 93.491 5.336 L 94.331 5.336 L 94.331 10.037 L 94.331 10.037 Q 94.331 10.368 94.479 10.51 L 94.479 10.51 L 94.479 10.51 Q 94.628 10.652 94.983 10.652 L 94.983 10.652 L 95.715 10.652 L 95.814 11.267 L 95.814 11.267 Q 95.656 11.305 95.448 11.333 L 95.448 11.333 L 95.448 11.333 Q 95.241 11.362 95.043 11.376 L 95.043 11.376 L 95.043 11.376 Q 94.845 11.39 94.726 11.39 L 94.726 11.39 L 94.726 11.39 Q 94.123 11.39 93.807 11.068 L 93.807 11.068 L 93.807 11.068 Q 93.491 10.747 93.491 10.141 L 93.491 10.141 L 93.491 5.336 L 93.491 5.336 Z  M 93.57 6.698 L 95.863 6.698 L 95.863 7.332 L 92.62 7.332 L 92.62 6.745 L 93.57 6.698 L 93.57 6.698 Z  M 96.892 6.698 L 97.544 6.698 L 97.653 7.578 L 97.732 7.72 L 97.732 11.305 L 96.892 11.305 L 96.892 6.698 L 96.892 6.698 Z  M 99.69 6.584 L 99.907 6.584 L 99.809 7.341 L 99.532 7.341 L 99.532 7.341 Q 99.107 7.341 98.681 7.507 L 98.681 7.507 L 98.681 7.507 Q 98.256 7.672 97.643 7.975 L 97.643 7.975 L 97.574 7.474 L 97.574 7.474 Q 98.108 7.057 98.647 6.821 L 98.647 6.821 L 98.647 6.821 Q 99.186 6.584 99.69 6.584 L 99.69 6.584 L 99.69 6.584 Z  M 103.131 6.584 L 103.131 6.584 L 103.131 6.584 Q 103.665 6.584 104.035 6.722 L 104.035 6.722 L 104.035 6.722 Q 104.406 6.859 104.594 7.18 L 104.594 7.18 L 104.594 7.18 Q 104.782 7.502 104.782 8.06 L 104.782 8.06 L 104.782 11.305 L 104.119 11.305 L 103.991 10.302 L 103.932 10.198 L 103.932 8.06 L 103.932 8.06 Q 103.932 7.634 103.729 7.45 L 103.729 7.45 L 103.729 7.45 Q 103.526 7.265 102.953 7.265 L 102.953 7.265 L 102.953 7.265 Q 102.577 7.265 102.008 7.303 L 102.008 7.303 L 102.008 7.303 Q 101.44 7.341 100.886 7.388 L 100.886 7.388 L 100.807 6.792 L 100.807 6.792 Q 101.143 6.736 101.544 6.688 L 101.544 6.688 L 101.544 6.688 Q 101.944 6.641 102.359 6.613 L 102.359 6.613 L 102.359 6.613 Q 102.775 6.584 103.131 6.584 Z  M 101.924 8.467 L 104.386 8.467 L 104.376 9.072 L 102.073 9.082 L 102.073 9.082 Q 101.727 9.091 101.588 9.257 L 101.588 9.257 L 101.588 9.257 Q 101.45 9.422 101.45 9.716 L 101.45 9.716 L 101.45 10.009 L 101.45 10.009 Q 101.45 10.368 101.628 10.534 L 101.628 10.534 L 101.628 10.534 Q 101.806 10.699 102.201 10.699 L 102.201 10.699 L 102.201 10.699 Q 102.478 10.699 102.829 10.6 L 102.829 10.6 L 102.829 10.6 Q 103.18 10.501 103.536 10.293 L 103.536 10.293 L 103.536 10.293 Q 103.892 10.085 104.189 9.763 L 104.189 9.763 L 104.189 10.359 L 104.189 10.359 Q 104.08 10.491 103.877 10.666 L 103.877 10.666 L 103.877 10.666 Q 103.674 10.841 103.393 11.007 L 103.393 11.007 L 103.393 11.007 Q 103.111 11.172 102.77 11.281 L 102.77 11.281 L 102.77 11.281 Q 102.429 11.39 102.033 11.39 L 102.033 11.39 L 102.033 11.39 Q 101.608 11.39 101.282 11.243 L 101.282 11.243 L 101.282 11.243 Q 100.955 11.097 100.773 10.808 L 100.773 10.808 L 100.773 10.808 Q 100.59 10.52 100.59 10.103 L 100.59 10.103 L 100.59 9.602 L 100.59 9.602 Q 100.59 9.063 100.941 8.765 L 100.941 8.765 L 100.941 8.765 Q 101.292 8.467 101.924 8.467 L 101.924 8.467 L 101.924 8.467 Z  M 108.341 6.584 L 108.341 6.584 L 108.341 6.584 Q 108.559 6.584 108.826 6.603 L 108.826 6.603 L 108.826 6.603 Q 109.093 6.622 109.374 6.67 L 109.374 6.67 L 109.374 6.67 Q 109.656 6.717 109.894 6.802 L 109.894 6.802 L 109.785 7.322 L 109.785 7.322 Q 109.459 7.294 109.098 7.28 L 109.098 7.28 L 109.098 7.28 Q 108.737 7.265 108.48 7.265 L 108.48 7.265 L 108.48 7.265 Q 107.906 7.265 107.57 7.417 L 107.57 7.417 L 107.57 7.417 Q 107.234 7.568 107.086 7.947 L 107.086 7.947 L 107.086 7.947 Q 106.937 8.325 106.937 8.997 L 106.937 8.997 L 106.937 8.997 Q 106.937 9.668 107.086 10.051 L 107.086 10.051 L 107.086 10.051 Q 107.234 10.435 107.57 10.586 L 107.57 10.586 L 107.57 10.586 Q 107.906 10.737 108.48 10.737 L 108.48 10.737 L 108.48 10.737 Q 108.628 10.737 108.865 10.728 L 108.865 10.728 L 108.865 10.728 Q 109.103 10.718 109.374 10.699 L 109.374 10.699 L 109.374 10.699 Q 109.646 10.68 109.894 10.643 L 109.894 10.643 L 109.983 11.182 L 109.983 11.182 Q 109.617 11.305 109.187 11.362 L 109.187 11.362 L 109.187 11.362 Q 108.757 11.418 108.331 11.418 L 108.331 11.418 L 108.331 11.418 Q 107.501 11.418 106.997 11.182 L 106.997 11.182 L 106.997 11.182 Q 106.492 10.945 106.27 10.416 L 106.27 10.416 L 106.27 10.416 Q 106.047 9.886 106.047 8.997 L 106.047 8.997 L 106.047 8.997 Q 106.047 8.107 106.275 7.578 L 106.275 7.578 L 106.275 7.578 Q 106.502 7.048 107.006 6.816 L 107.006 6.816 L 107.006 6.816 Q 107.511 6.584 108.341 6.584 Z  M 107.748 12.204 L 107.837 11.825 L 107.837 11.825 Q 108.223 11.787 108.465 11.83 L 108.465 11.83 L 108.465 11.83 Q 108.707 11.872 108.826 12.014 L 108.826 12.014 L 108.826 12.014 Q 108.944 12.156 108.935 12.44 L 108.935 12.44 L 108.935 12.44 Q 108.925 12.837 108.707 13.116 L 108.707 13.116 L 108.707 13.116 Q 108.49 13.395 108.124 13.518 L 108.124 13.518 L 108.124 13.518 Q 107.758 13.641 107.283 13.585 L 107.283 13.585 L 107.412 13.159 L 107.412 13.159 Q 107.817 13.168 108.069 12.984 L 108.069 12.984 L 108.069 12.984 Q 108.321 12.8 108.331 12.506 L 108.331 12.506 L 108.331 12.506 Q 108.341 12.336 108.223 12.274 L 108.223 12.274 L 108.223 12.274 Q 108.104 12.213 107.748 12.204 L 107.748 12.204 L 107.748 12.204 Z  M 113.394 6.584 L 113.394 6.584 L 113.394 6.584 Q 113.928 6.584 114.298 6.722 L 114.298 6.722 L 114.298 6.722 Q 114.669 6.859 114.857 7.18 L 114.857 7.18 L 114.857 7.18 Q 115.045 7.502 115.045 8.06 L 115.045 8.06 L 115.045 11.305 L 114.382 11.305 L 114.254 10.302 L 114.195 10.198 L 114.195 8.06 L 114.195 8.06 Q 114.195 7.634 113.992 7.45 L 113.992 7.45 L 113.992 7.45 Q 113.789 7.265 113.216 7.265 L 113.216 7.265 L 113.216 7.265 Q 112.84 7.265 112.271 7.303 L 112.271 7.303 L 112.271 7.303 Q 111.703 7.341 111.149 7.388 L 111.149 7.388 L 111.07 6.792 L 111.07 6.792 Q 111.406 6.736 111.807 6.688 L 111.807 6.688 L 111.807 6.688 Q 112.207 6.641 112.622 6.613 L 112.622 6.613 L 112.622 6.613 Q 113.038 6.584 113.394 6.584 Z  M 112.187 8.467 L 114.649 8.467 L 114.639 9.072 L 112.336 9.082 L 112.336 9.082 Q 111.99 9.091 111.851 9.257 L 111.851 9.257 L 111.851 9.257 Q 111.713 9.422 111.713 9.716 L 111.713 9.716 L 111.713 10.009 L 111.713 10.009 Q 111.713 10.368 111.891 10.534 L 111.891 10.534 L 111.891 10.534 Q 112.069 10.699 112.464 10.699 L 112.464 10.699 L 112.464 10.699 Q 112.741 10.699 113.092 10.6 L 113.092 10.6 L 113.092 10.6 Q 113.443 10.501 113.799 10.293 L 113.799 10.293 L 113.799 10.293 Q 114.155 10.085 114.452 9.763 L 114.452 9.763 L 114.452 10.359 L 114.452 10.359 Q 114.343 10.491 114.14 10.666 L 114.14 10.666 L 114.14 10.666 Q 113.937 10.841 113.656 11.007 L 113.656 11.007 L 113.656 11.007 Q 113.374 11.172 113.033 11.281 L 113.033 11.281 L 113.033 11.281 Q 112.692 11.39 112.296 11.39 L 112.296 11.39 L 112.296 11.39 Q 111.871 11.39 111.545 11.243 L 111.545 11.243 L 111.545 11.243 Q 111.218 11.097 111.036 10.808 L 111.036 10.808 L 111.036 10.808 Q 110.853 10.52 110.853 10.103 L 110.853 10.103 L 110.853 9.602 L 110.853 9.602 Q 110.853 9.063 111.204 8.765 L 111.204 8.765 L 111.204 8.765 Q 111.555 8.467 112.187 8.467 L 112.187 8.467 L 112.187 8.467 Z  M 112.257 4.692 L 112.257 4.692 L 112.257 4.692 Q 112.484 4.711 112.667 4.782 L 112.667 4.782 L 112.667 4.782 Q 112.85 4.853 113.013 4.943 L 113.013 4.943 L 113.013 4.943 Q 113.176 5.033 113.349 5.109 L 113.349 5.109 L 113.349 5.109 Q 113.522 5.184 113.73 5.213 L 113.73 5.213 L 113.73 5.213 Q 114.017 5.251 114.115 5.128 L 114.115 5.128 L 114.115 5.128 Q 114.214 5.005 114.214 4.74 L 114.214 4.74 L 114.61 4.74 L 114.61 4.74 Q 114.669 5.269 114.447 5.549 L 114.447 5.549 L 114.447 5.549 Q 114.224 5.828 113.839 5.799 L 113.839 5.799 L 113.839 5.799 Q 113.502 5.771 113.26 5.648 L 113.26 5.648 L 113.26 5.648 Q 113.018 5.525 112.805 5.402 L 112.805 5.402 L 112.805 5.402 Q 112.593 5.279 112.346 5.26 L 112.346 5.26 L 112.346 5.26 Q 112.069 5.232 111.975 5.359 L 111.975 5.359 L 111.975 5.359 Q 111.881 5.487 111.881 5.771 L 111.881 5.771 L 111.485 5.771 L 111.485 5.771 Q 111.446 5.392 111.54 5.146 L 111.54 5.146 L 111.54 5.146 Q 111.634 4.901 111.827 4.787 L 111.827 4.787 L 111.827 4.787 Q 112.019 4.673 112.257 4.692 Z  M 118.585 6.584 L 118.585 6.584 L 118.585 6.584 Q 119.415 6.584 119.914 6.821 L 119.914 6.821 L 119.914 6.821 Q 120.414 7.057 120.631 7.592 L 120.631 7.592 L 120.631 7.592 Q 120.849 8.126 120.849 9.006 L 120.849 9.006 L 120.849 9.006 Q 120.849 9.886 120.631 10.42 L 120.631 10.42 L 120.631 10.42 Q 120.414 10.955 119.914 11.191 L 119.914 11.191 L 119.914 11.191 Q 119.415 11.428 118.585 11.428 L 118.585 11.428 L 118.585 11.428 Q 117.764 11.428 117.265 11.191 L 117.265 11.191 L 117.265 11.191 Q 116.765 10.955 116.543 10.42 L 116.543 10.42 L 116.543 10.42 Q 116.32 9.886 116.32 9.006 L 116.32 9.006 L 116.32 9.006 Q 116.32 8.126 116.543 7.592 L 116.543 7.592 L 116.543 7.592 Q 116.765 7.057 117.265 6.821 L 117.265 6.821 L 117.265 6.821 Q 117.764 6.584 118.585 6.584 Z  M 118.585 7.265 L 118.585 7.265 L 118.585 7.265 Q 118.061 7.265 117.759 7.422 L 117.759 7.422 L 117.759 7.422 Q 117.457 7.578 117.329 7.956 L 117.329 7.956 L 117.329 7.956 Q 117.2 8.334 117.2 9.006 L 117.2 9.006 L 117.2 9.006 Q 117.2 9.678 117.329 10.056 L 117.329 10.056 L 117.329 10.056 Q 117.457 10.435 117.759 10.591 L 117.759 10.591 L 117.759 10.591 Q 118.061 10.747 118.585 10.747 L 118.585 10.747 L 118.585 10.747 Q 119.109 10.747 119.415 10.591 L 119.415 10.591 L 119.415 10.591 Q 119.722 10.435 119.85 10.056 L 119.85 10.056 L 119.85 10.056 Q 119.979 9.678 119.979 9.006 L 119.979 9.006 L 119.979 9.006 Q 119.979 8.334 119.85 7.956 L 119.85 7.956 L 119.85 7.956 Q 119.722 7.578 119.415 7.422 L 119.415 7.422 L 119.415 7.422 Q 119.109 7.265 118.585 7.265 Z " fill="rgb(0,0,0)"/></svg>